<svg xmlns="http://www.w3.org/2000/svg" width="241.5pt" height="189.0pt" viewBox="0 0 241.5 189.0">
<line x1="28.89" y1="180.00" x2="28.89" y2="39.30" stroke="#BFBFBF" stroke-width="0.6"/>
<line x1="52.46" y1="180.00" x2="52.46" y2="39.30" stroke="#BFBFBF" stroke-width="0.6"/>
<line x1="99.62" y1="180.00" x2="99.62" y2="39.30" stroke="#BFBFBF" stroke-width="0.6"/>
<line x1="123.20" y1="180.00" x2="123.20" y2="39.30" stroke="#BFBFBF" stroke-width="0.6"/>
<line x1="146.78" y1="180.00" x2="146.78" y2="39.30" stroke="#BFBFBF" stroke-width="0.6"/>
<line x1="170.36" y1="180.00" x2="170.36" y2="39.30" stroke="#BFBFBF" stroke-width="0.6"/>
<line x1="193.94" y1="180.00" x2="193.94" y2="39.30" stroke="#BFBFBF" stroke-width="0.6"/>
<line x1="12.00" y1="163.60" x2="211.80" y2="163.60" stroke="#BFBFBF" stroke-width="0.6"/>
<line x1="12.00" y1="119.81" x2="211.80" y2="119.81" stroke="#BFBFBF" stroke-width="0.6"/>
<line x1="12.00" y1="97.92" x2="211.80" y2="97.92" stroke="#BFBFBF" stroke-width="0.6"/>
<line x1="12.00" y1="76.03" x2="211.80" y2="76.03" stroke="#BFBFBF" stroke-width="0.6"/>
<line x1="12.00" y1="54.14" x2="211.80" y2="54.14" stroke="#BFBFBF" stroke-width="0.6"/>
<rect x="11.60" y="149.91" width="17.61" height="11.04" fill="#FFFFFF" stroke="none" stroke-width="0"/>
<rect x="79.72" y="149.91" width="8.65" height="11.04" fill="#FFFFFF" stroke="none" stroke-width="0"/>
<rect x="118.88" y="149.91" width="8.65" height="11.04" fill="#FFFFFF" stroke="none" stroke-width="0"/>
<rect x="166.03" y="124.91" width="8.65" height="11.04" fill="#FFFFFF" stroke="none" stroke-width="0"/>
<rect x="62.72" y="71.23" width="8.65" height="11.04" fill="#FFFFFF" stroke="none" stroke-width="0"/>
<rect x="62.72" y="115.01" width="8.65" height="11.04" fill="#FFFFFF" stroke="none" stroke-width="0"/>
<text x="12.60" y="158.79" font-family="Cambria Math" font-size="12pt">−2</text>
<text x="80.72" y="158.79" font-family="Cambria Math" font-size="12pt">0</text>
<text x="119.88" y="158.79" font-family="Cambria Math" font-size="12pt">2</text>
<text x="167.03" y="133.79" font-family="Cambria Math" font-size="12pt">4</text>
<text x="63.72" y="80.11" font-family="Cambria Math" font-size="12pt">4</text>
<text x="63.72" y="123.89" font-family="Cambria Math" font-size="12pt">2</text>
<line x1="12.75" y1="141.71" x2="207.40" y2="141.71" stroke="#000000" stroke-width="1.0"/>
<polygon points="212.40,141.71 205.95,144.43 205.95,138.98" fill="#000000" stroke="none" stroke-width="0"/>
<line x1="76.04" y1="178.50" x2="76.04" y2="32.30" stroke="#000000" stroke-width="1.0"/>
<polygon points="76.04,27.30 78.77,33.75 73.32,33.75" fill="#000000" stroke="none" stroke-width="0"/>
<line x1="28.89" y1="139.11" x2="28.89" y2="144.31" stroke="#000000" stroke-width="0.9"/>
<line x1="52.46" y1="139.11" x2="52.46" y2="144.31" stroke="#000000" stroke-width="0.9"/>
<line x1="99.62" y1="139.11" x2="99.62" y2="144.31" stroke="#000000" stroke-width="0.9"/>
<line x1="123.20" y1="139.11" x2="123.20" y2="144.31" stroke="#000000" stroke-width="0.9"/>
<line x1="146.78" y1="139.11" x2="146.78" y2="144.31" stroke="#000000" stroke-width="0.9"/>
<line x1="170.36" y1="139.11" x2="170.36" y2="144.31" stroke="#000000" stroke-width="0.9"/>
<line x1="193.94" y1="139.11" x2="193.94" y2="144.31" stroke="#000000" stroke-width="0.9"/>
<line x1="73.44" y1="163.60" x2="78.64" y2="163.60" stroke="#000000" stroke-width="0.9"/>
<line x1="73.44" y1="119.81" x2="78.64" y2="119.81" stroke="#000000" stroke-width="0.9"/>
<line x1="73.44" y1="97.92" x2="78.64" y2="97.92" stroke="#000000" stroke-width="0.9"/>
<line x1="73.44" y1="76.03" x2="78.64" y2="76.03" stroke="#000000" stroke-width="0.9"/>
<line x1="73.44" y1="54.14" x2="78.64" y2="54.14" stroke="#000000" stroke-width="0.9"/>
<text x="218.53" y="145.79" font-family="Cambria Math" font-size="12pt">𝑋</text>
<text x="72.43" y="21.38" font-family="Cambria Math" font-size="12pt">𝑌</text>
<path d="M 18.00,126.30 C 53.03,180.11 70.17,167.96 123.84,53.55" fill="none" stroke="#000000" stroke-width="1.5"/>
<path d="M 123.75,119.55 C 147.93,78.92 164.00,179.20 173.09,176.45 C 182.17,173.70 193.83,124.92 204.75,76.05" fill="none" stroke="#000000" stroke-width="1.5"/>
<circle cx="123.20" cy="54.14" r="3.0" fill="#000000" stroke="none"/>
<circle cx="123.20" cy="119.81" r="3.00" fill="#FFFFFF" stroke="#000000" stroke-width="1.0"/>
<text x="205.80" y="68.58" font-family="Cambria Math" font-size="12pt">𝑓</text>
</svg>
