<svg xmlns="http://www.w3.org/2000/svg" width="290.0pt" height="280.0pt" viewBox="0 0 290.0 280.0">
<line x1="20.00" y1="172.92" x2="270.00" y2="172.92" stroke="#000000" stroke-width="0.9"/>
<polygon points="275.00,172.92 269.47,175.25 269.47,170.58" fill="#000000" stroke="none" stroke-width="0"/>
<line x1="112.08" y1="265.00" x2="112.08" y2="15.00" stroke="#000000" stroke-width="0.9"/>
<polygon points="112.08,10.00 114.42,15.53 109.75,15.53" fill="#000000" stroke="none" stroke-width="0"/>
<text x="269.00" y="187.92" font-family="Cambria Math" font-size="12pt" font-style="italic">x</text>
<text x="118.08" y="19.00" font-family="Cambria Math" font-size="12pt" font-style="italic">y</text>
<text x="101.08" y="185.92" font-family="Cambria Math" font-size="10pt" font-style="italic">O</text>
<polyline points="23.54,261.46 24.15,260.85 24.76,260.24 25.37,259.63 25.99,259.01 26.60,258.40 27.21,257.79 27.82,257.18 28.43,256.57 29.04,255.96 29.65,255.35 30.26,254.74 30.87,254.13 31.48,253.52 32.09,252.91 32.71,252.29 33.32,251.68 33.93,251.07 34.54,250.46 35.15,249.85 35.76,249.24 36.37,248.63 36.98,248.02 37.59,247.41 38.20,246.80 38.82,246.18 39.43,245.57 40.04,244.96 40.65,244.35 41.26,243.74 41.87,243.13 42.48,242.52 43.09,241.91 43.70,241.30 44.31,240.69 44.92,240.08 45.54,239.46 46.15,238.85 46.76,238.24 47.37,237.63 47.98,237.02 48.59,236.41 49.20,235.80 49.81,235.19 50.42,234.58 51.03,233.97 51.64,233.36 52.26,232.74 52.87,232.13 53.48,231.52 54.09,230.91 54.70,230.30 55.31,229.69 55.92,229.08 56.53,228.47 57.14,227.86 57.75,227.25 58.37,226.63 58.98,226.02 59.59,225.41 60.20,224.80 60.81,224.19 61.42,223.58 62.03,222.97 62.64,222.36 63.25,221.75 63.86,221.14 64.47,220.53 65.09,219.91 65.70,219.30 66.31,218.69 66.92,218.08 67.53,217.47 68.14,216.86 68.75,216.25 69.36,215.64 69.97,215.03 70.58,214.42 71.19,213.81 71.81,213.19 72.42,212.58 73.03,211.97 73.64,211.36 74.25,210.75 74.86,210.14 75.47,209.53 76.08,208.92 76.69,208.31 77.30,207.70 77.92,207.08 78.53,206.47 79.14,205.86 79.75,205.25 80.36,204.64 80.97,204.03 81.58,203.42 82.19,202.81 82.80,202.20 83.41,201.59 84.02,200.98 84.64,200.36 85.25,199.75 85.86,199.14 86.47,198.53 87.08,197.92 87.69,197.31 88.30,196.70 88.91,196.09 89.52,195.48 90.13,194.87 90.74,194.26 91.36,193.64 91.97,193.03 92.58,192.42 93.19,191.81 93.80,191.20 94.41,190.59 95.02,189.98 95.63,189.37 96.24,188.76 96.85,188.15 97.47,187.53 98.08,186.92 98.69,186.31 99.30,185.70 99.91,185.09 100.52,184.48 101.13,183.87 101.74,183.26 102.35,182.65 102.96,182.04 103.57,181.43 104.19,180.81 104.80,180.20 105.41,179.59 106.02,178.98 106.63,178.37 107.24,177.76 107.85,177.15 108.46,176.54 109.07,175.93 109.68,175.32 110.29,174.71 110.91,174.09 111.52,173.48 112.13,172.87 112.74,172.26 113.35,171.65 113.96,171.04 114.57,170.43 115.18,169.82 115.79,169.21 116.40,168.60 117.02,167.98 117.63,167.37 118.24,166.76 118.85,166.15 119.46,165.54 120.07,164.93 120.68,164.32 121.29,163.71 121.90,163.10 122.51,162.49 123.12,161.88 123.74,161.26 124.35,160.65 124.96,160.04 125.57,159.43 126.18,158.82 126.79,158.21 127.40,157.60 128.01,156.99 128.62,156.38 129.23,155.77 129.84,155.16 130.46,154.54 131.07,153.93 131.68,153.32 132.29,152.71 132.90,152.10 133.51,151.49 134.12,150.88 134.73,150.27 135.34,149.66 135.95,149.05 136.57,148.43 137.18,147.82 137.79,147.21 138.40,146.60 139.01,145.99 139.62,145.38 140.23,144.77 140.84,144.16 141.45,143.55 142.06,142.94 142.67,142.33 143.29,141.71 143.90,141.10 144.51,140.49 145.12,139.88 145.73,139.27 146.34,138.66 146.95,138.05 147.56,137.44 148.17,136.83 148.78,136.22 149.39,135.61 150.01,134.99 150.62,134.38 151.23,133.77 151.84,133.16 152.45,132.55 153.06,131.94 153.67,131.33 154.28,130.72 154.89,130.11 155.50,129.50 156.12,128.88 156.73,128.27 157.34,127.66 157.95,127.05 158.56,126.44 159.17,125.83 159.78,125.22 160.39,124.61 161.00,124.00 161.61,123.39 162.22,122.78 162.84,122.16 163.45,121.55 164.06,120.94 164.67,120.33 165.28,119.72 165.89,119.11 166.50,118.50 167.11,117.89 167.72,117.28 168.33,116.67 168.94,116.06 169.56,115.44 170.17,114.83 170.78,114.22 171.39,113.61 172.00,113.00 172.61,112.39 173.22,111.78 173.83,111.17 174.44,110.56 175.05,109.95 175.67,109.33 176.28,108.72 176.89,108.11 177.50,107.50 178.11,106.89 178.72,106.28 179.33,105.67 179.94,105.06 180.55,104.45 181.16,103.84 181.77,103.23 182.39,102.61 183.00,102.00 183.61,101.39 184.22,100.78 184.83,100.17 185.44,99.56 186.05,98.95 186.66,98.34 187.27,97.73 187.88,97.12 188.49,96.51 189.11,95.89 189.72,95.28 190.33,94.67 190.94,94.06 191.55,93.45 192.16,92.84 192.77,92.23 193.38,91.62 193.99,91.01 194.60,90.40 195.22,89.78 195.83,89.17 196.44,88.56 197.05,87.95 197.66,87.34 198.27,86.73 198.88,86.12 199.49,85.51 200.10,84.90 200.71,84.29 201.32,83.68 201.94,83.06 202.55,82.45 203.16,81.84 203.77,81.23 204.38,80.62 204.99,80.01 205.60,79.40 206.21,78.79 206.82,78.18 207.43,77.57 208.04,76.96 208.66,76.34 209.27,75.73 209.88,75.12 210.49,74.51 211.10,73.90 211.71,73.29 212.32,72.68 212.93,72.07 213.54,71.46 214.15,70.85 214.77,70.23 215.38,69.62 215.99,69.01 216.60,68.40 217.21,67.79 217.82,67.18 218.43,66.57 219.04,65.96 219.65,65.35 220.26,64.74 220.87,64.13 221.49,63.51 222.10,62.90 222.71,62.29 223.32,61.68 223.93,61.07 224.54,60.46 225.15,59.85 225.76,59.24 226.37,58.63 226.98,58.02 227.59,57.41 228.21,56.79 228.82,56.18 229.43,55.57 230.04,54.96 230.65,54.35 231.26,53.74 231.87,53.13 232.48,52.52 233.09,51.91 233.70,51.30 234.32,50.68 234.93,50.07 235.54,49.46 236.15,48.85 236.76,48.24 237.37,47.63 237.98,47.02 238.59,46.41 239.20,45.80 239.81,45.19 240.42,44.58 241.04,43.96 241.65,43.35 242.26,42.74 242.87,42.13 243.48,41.52 244.09,40.91 244.70,40.30 245.31,39.69 245.92,39.08 246.53,38.47 247.14,37.86 247.76,37.24 248.37,36.63 248.98,36.02 249.59,35.41 250.20,34.80 250.81,34.19 251.42,33.58 252.03,32.97 252.64,32.36 253.25,31.75 253.87,31.13 254.48,30.52 255.09,29.91 255.70,29.30 256.31,28.69 256.92,28.08 257.53,27.47 258.14,26.86 258.75,26.25 259.36,25.64 259.97,25.03 260.59,24.41 261.20,23.80 261.81,23.19 262.42,22.58 263.03,21.97 263.64,21.36 264.25,20.75 264.86,20.14 265.47,19.53 266.08,18.92 266.69,18.31 267.31,17.69 267.92,17.08" fill="none" stroke="#000000" stroke-width="0.9" stroke-dasharray="5,3"/>
<polyline points="23.54,166.66 23.96,166.60 24.37,166.55 24.79,166.50 25.21,166.45 25.62,166.40 26.04,166.34 26.45,166.29 26.87,166.23 27.29,166.18 27.70,166.12 28.12,166.07 28.54,166.01 28.95,165.96 29.37,165.90 29.78,165.84 30.20,165.78 30.62,165.73 31.03,165.67 31.45,165.61 31.86,165.55 32.28,165.49 32.70,165.43 33.11,165.37 33.53,165.30 33.95,165.24 34.36,165.18 34.78,165.12 35.19,165.05 35.61,164.99 36.03,164.92 36.44,164.86 36.86,164.79 37.27,164.73 37.69,164.66 38.11,164.59 38.52,164.52 38.94,164.45 39.36,164.38 39.77,164.32 40.19,164.24 40.60,164.17 41.02,164.10 41.44,164.03 41.85,163.96 42.27,163.88 42.68,163.81 43.10,163.74 43.52,163.66 43.93,163.59 44.35,163.51 44.77,163.43 45.18,163.35 45.60,163.28 46.01,163.20 46.43,163.12 46.85,163.04 47.26,162.96 47.68,162.88 48.09,162.79 48.51,162.71 48.93,162.63 49.34,162.54 49.76,162.46 50.18,162.37 50.59,162.29 51.01,162.20 51.42,162.11 51.84,162.02 52.26,161.93 52.67,161.84 53.09,161.75 53.50,161.66 53.92,161.57 54.34,161.48 54.75,161.38 55.17,161.29 55.58,161.19 56.00,161.10 56.42,161.00 56.83,160.91 57.25,160.81 57.67,160.71 58.08,160.61 58.50,160.51 58.91,160.41 59.33,160.30 59.75,160.20 60.16,160.10 60.58,159.99 60.99,159.89 61.41,159.78 61.83,159.67 62.24,159.56 62.66,159.45 63.08,159.34 63.49,159.23 63.91,159.12 64.32,159.01 64.74,158.89 65.16,158.78 65.57,158.66 65.99,158.55 66.40,158.43 66.82,158.31 67.24,158.19 67.65,158.07 68.07,157.95 68.49,157.83 68.90,157.70 69.32,157.58 69.73,157.46 70.15,157.33 70.57,157.20 70.98,157.07 71.40,156.94 71.81,156.81 72.23,156.68 72.65,156.55 73.06,156.41 73.48,156.28 73.90,156.14 74.31,156.01 74.73,155.87 75.14,155.73 75.56,155.59 75.98,155.45 76.39,155.30 76.81,155.16 77.22,155.01 77.64,154.87 78.06,154.72 78.47,154.57 78.89,154.42 79.31,154.27 79.72,154.12 80.14,153.96 80.55,153.81 80.97,153.65 81.39,153.49 81.80,153.34 82.22,153.18 82.63,153.01 83.05,152.85 83.47,152.69 83.88,152.52 84.30,152.36 84.72,152.19 85.13,152.02 85.55,151.85 85.96,151.67 86.38,151.50 86.80,151.33 87.21,151.15 87.63,150.97 88.04,150.79 88.46,150.61 88.88,150.43 89.29,150.24 89.71,150.06 90.13,149.87 90.54,149.68 90.96,149.49 91.37,149.30 91.79,149.11 92.21,148.91 92.62,148.72 93.04,148.52 93.45,148.32 93.87,148.12 94.29,147.92 94.70,147.71 95.12,147.51 95.53,147.30 95.95,147.09 96.37,146.88 96.78,146.66 97.20,146.45 97.62,146.23 98.03,146.02 98.45,145.80 98.86,145.57 99.28,145.35 99.70,145.12 100.11,144.90 100.53,144.67 100.94,144.44 101.36,144.20 101.78,143.97 102.19,143.73 102.61,143.49 103.03,143.25 103.44,143.01 103.86,142.77 104.27,142.52 104.69,142.27 105.11,142.02 105.52,141.77 105.94,141.51 106.35,141.26 106.77,141.00 107.19,140.74 107.60,140.47 108.02,140.21 108.44,139.94 108.85,139.67 109.27,139.40 109.68,139.12 110.10,138.85 110.52,138.57 110.93,138.29 111.35,138.01 111.76,137.72 112.18,137.43 112.60,137.14 113.01,136.85 113.43,136.55 113.85,136.26 114.26,135.96 114.68,135.66 115.09,135.35 115.51,135.04 115.93,134.73 116.34,134.42 116.76,134.11 117.17,133.79 117.59,133.47 118.01,133.15 118.42,132.82 118.84,132.49 119.26,132.16 119.67,131.83 120.09,131.49 120.50,131.16 120.92,130.81 121.34,130.47 121.75,130.12 122.17,129.77 122.58,129.42 123.00,129.06 123.42,128.70 123.83,128.34 124.25,127.98 124.67,127.61 125.08,127.24 125.50,126.87 125.91,126.49 126.33,126.11 126.75,125.73 127.16,125.34 127.58,124.95 127.99,124.56 128.41,124.17 128.83,123.77 129.24,123.37 129.66,122.96 130.08,122.55 130.49,122.14 130.91,121.72 131.32,121.31 131.74,120.88 132.16,120.46 132.57,120.03 132.99,119.60 133.40,119.16 133.82,118.72 134.24,118.28 134.65,117.83 135.07,117.38 135.48,116.93 135.90,116.47 136.32,116.01 136.73,115.54 137.15,115.07 137.57,114.60 137.98,114.12 138.40,113.64 138.81,113.16 139.23,112.67 139.65,112.18 140.06,111.68 140.48,111.18 140.89,110.67 141.31,110.16 141.73,109.65 142.14,109.13 142.56,108.61 142.98,108.09 143.39,107.56 143.81,107.02 144.22,106.48 144.64,105.94 145.06,105.39 145.47,104.84 145.89,104.28 146.30,103.72 146.72,103.16 147.14,102.58 147.55,102.01 147.97,101.43 148.39,100.85 148.80,100.26 149.22,99.66 149.63,99.06 150.05,98.46 150.47,97.85 150.88,97.24 151.30,96.62 151.71,95.99 152.13,95.36 152.55,94.73 152.96,94.09 153.38,93.45 153.80,92.80 154.21,92.14 154.63,91.48 155.04,90.81 155.46,90.14 155.88,89.47 156.29,88.78 156.71,88.10 157.12,87.40 157.54,86.70 157.96,86.00 158.37,85.29 158.79,84.57 159.21,83.85 159.62,83.12 160.04,82.38 160.45,81.64 160.87,80.90 161.29,80.15 161.70,79.39 162.12,78.62 162.53,77.85 162.95,77.07 163.37,76.29 163.78,75.50 164.20,74.70 164.62,73.90 165.03,73.09 165.45,72.27 165.86,71.45 166.28,70.62 166.70,69.78 167.11,68.94 167.53,68.09 167.94,67.23 168.36,66.37 168.78,65.50 169.19,64.62 169.61,63.73 170.03,62.84 170.44,61.94 170.86,61.03 171.27,60.12 171.69,59.20 172.11,58.27 172.52,57.33 172.94,56.38 173.35,55.43 173.77,54.47 174.19,53.50 174.60,52.52 175.02,51.54 175.43,50.55 175.85,49.55 176.27,48.54 176.68,47.52 177.10,46.49 177.52,45.46 177.93,44.42 178.35,43.37 178.76,42.31 179.18,41.24 179.60,40.16 180.01,39.08 180.43,37.98 180.84,36.88 181.26,35.77 181.68,34.65 182.09,33.51 182.51,32.37 182.93,31.23 183.34,30.07 183.76,28.90 184.17,27.72 184.59,26.53 185.01,25.34 185.42,24.13 185.84,22.91 186.25,21.69 186.67,20.45 187.09,19.20 187.50,17.95 187.92,16.68 188.34,15.40 188.75,14.11 189.17,12.81 189.58,11.50 190.00,10.18" fill="none" stroke="#000000" stroke-width="1.5"/>
<polygon points="23.54,166.66 27.87,164.16 28.35,168.02" fill="#000000" stroke="none" stroke-width="0"/>
<polygon points="190.00,10.18 190.45,15.16 186.74,13.98" fill="#000000" stroke="none" stroke-width="0"/>
<polyline points="118.46,260.54 118.84,257.56 119.22,254.74 119.61,252.08 119.99,249.54 120.37,247.13 120.75,244.82 121.14,242.62 121.52,240.50 121.90,238.47 122.28,236.52 122.67,234.64 123.05,232.82 123.43,231.07 123.81,229.38 124.20,227.74 124.58,226.15 124.96,224.61 125.34,223.11 125.73,221.66 126.11,220.25 126.49,218.87 126.87,217.53 127.26,216.23 127.64,214.96 128.02,213.72 128.40,212.50 128.79,211.32 129.17,210.16 129.55,209.03 129.93,207.93 130.32,206.84 130.70,205.78 131.08,204.74 131.46,203.72 131.85,202.73 132.23,201.75 132.61,200.78 132.99,199.84 133.38,198.92 133.76,198.01 134.14,197.11 134.52,196.23 134.91,195.37 135.29,194.52 135.67,193.69 136.05,192.86 136.44,192.05 136.82,191.26 137.20,190.47 137.58,189.70 137.97,188.94 138.35,188.19 138.73,187.45 139.11,186.72 139.50,186.01 139.88,185.30 140.26,184.60 140.64,183.91 141.03,183.23 141.41,182.56 141.79,181.90 142.17,181.24 142.56,180.60 142.94,179.96 143.32,179.33 143.70,178.71 144.09,178.10 144.47,177.49 144.85,176.89 145.23,176.30 145.62,175.71 146.00,175.13 146.38,174.56 146.76,173.99 147.15,173.43 147.53,172.88 147.91,172.33 148.29,171.78 148.68,171.25 149.06,170.72 149.44,170.19 149.82,169.67 150.21,169.15 150.59,168.64 150.97,168.14 151.35,167.64 151.74,167.14 152.12,166.65 152.50,166.17 152.88,165.69 153.27,165.21 153.65,164.74 154.03,164.27 154.41,163.81 154.80,163.35 155.18,162.89 155.56,162.44 155.94,161.99 156.33,161.55 156.71,161.11 157.09,160.67 157.47,160.24 157.86,159.81 158.24,159.39 158.62,158.96 159.00,158.55 159.39,158.13 159.77,157.72 160.15,157.31 160.53,156.91 160.92,156.50 161.30,156.11 161.68,155.71 162.06,155.32 162.45,154.93 162.83,154.54 163.21,154.16 163.59,153.78 163.98,153.40 164.36,153.02 164.74,152.65 165.12,152.28 165.51,151.91 165.89,151.55 166.27,151.19 166.65,150.83 167.04,150.47 167.42,150.12 167.80,149.76 168.18,149.42 168.57,149.07 168.95,148.72 169.33,148.38 169.71,148.04 170.10,147.70 170.48,147.37 170.86,147.03 171.24,146.70 171.63,146.37 172.01,146.04 172.39,145.72 172.77,145.40 173.16,145.08 173.54,144.76 173.92,144.44 174.30,144.12 174.69,143.81 175.07,143.50 175.45,143.19 175.83,142.88 176.22,142.58 176.60,142.27 176.98,141.97 177.36,141.67 177.75,141.37 178.13,141.08 178.51,140.78 178.89,140.49 179.28,140.20 179.66,139.91 180.04,139.62 180.42,139.33 180.81,139.05 181.19,138.76 181.57,138.48 181.95,138.20 182.34,137.92 182.72,137.64 183.10,137.37 183.48,137.09 183.87,136.82 184.25,136.55 184.63,136.28 185.01,136.01 185.40,135.74 185.78,135.48 186.16,135.21 186.54,134.95 186.93,134.69 187.31,134.43 187.69,134.17 188.07,133.91 188.46,133.65 188.84,133.40 189.22,133.14 189.60,132.89 189.99,132.64 190.37,132.39 190.75,132.14 191.13,131.89 191.52,131.65 191.90,131.40 192.28,131.16 192.66,130.91 193.05,130.67 193.43,130.43 193.81,130.19 194.19,129.95 194.58,129.71 194.96,129.48 195.34,129.24 195.72,129.01 196.11,128.78 196.49,128.54 196.87,128.31 197.25,128.08 197.64,127.85 198.02,127.63 198.40,127.40 198.78,127.17 199.17,126.95 199.55,126.72 199.93,126.50 200.31,126.28 200.70,126.06 201.08,125.84 201.46,125.62 201.84,125.40 202.23,125.18 202.61,124.97 202.99,124.75 203.37,124.54 203.76,124.32 204.14,124.11 204.52,123.90 204.90,123.69 205.29,123.48 205.67,123.27 206.05,123.06 206.43,122.85 206.82,122.65 207.20,122.44 207.58,122.23 207.96,122.03 208.35,121.83 208.73,121.62 209.11,121.42 209.49,121.22 209.88,121.02 210.26,120.82 210.64,120.62 211.02,120.42 211.41,120.23 211.79,120.03 212.17,119.84 212.55,119.64 212.94,119.45 213.32,119.25 213.70,119.06 214.08,118.87 214.47,118.68 214.85,118.49 215.23,118.30 215.61,118.11 216.00,117.92 216.38,117.73 216.76,117.54 217.14,117.36 217.53,117.17 217.91,116.99 218.29,116.80 218.67,116.62 219.06,116.44 219.44,116.25 219.82,116.07 220.20,115.89 220.59,115.71 220.97,115.53 221.35,115.35 221.73,115.17 222.12,115.00 222.50,114.82 222.88,114.64 223.26,114.47 223.65,114.29 224.03,114.11 224.41,113.94 224.79,113.77 225.18,113.59 225.56,113.42 225.94,113.25 226.32,113.08 226.71,112.91 227.09,112.74 227.47,112.57 227.85,112.40 228.24,112.23 228.62,112.06 229.00,111.89 229.38,111.73 229.77,111.56 230.15,111.40 230.53,111.23 230.91,111.07 231.30,110.90 231.68,110.74 232.06,110.57 232.44,110.41 232.83,110.25 233.21,110.09 233.59,109.93 233.97,109.77 234.36,109.61 234.74,109.45 235.12,109.29 235.50,109.13 235.89,108.97 236.27,108.81 236.65,108.66 237.03,108.50 237.42,108.34 237.80,108.19 238.18,108.03 238.56,107.88 238.95,107.72 239.33,107.57 239.71,107.42 240.09,107.26 240.48,107.11 240.86,106.96 241.24,106.81 241.62,106.66 242.01,106.51 242.39,106.35 242.77,106.21 243.15,106.06 243.54,105.91 243.92,105.76 244.30,105.61 244.68,105.46 245.07,105.32 245.45,105.17 245.83,105.02 246.21,104.88 246.60,104.73 246.98,104.59 247.36,104.44 247.74,104.30 248.13,104.15 248.51,104.01 248.89,103.87 249.27,103.72 249.66,103.58 250.04,103.44 250.42,103.30 250.80,103.16 251.19,103.02 251.57,102.88 251.95,102.74 252.33,102.60 252.72,102.46 253.10,102.32 253.48,102.18 253.86,102.04 254.25,101.90 254.63,101.77 255.01,101.63 255.39,101.49 255.78,101.36 256.16,101.22 256.54,101.09 256.92,100.95 257.31,100.82 257.69,100.68 258.07,100.55 258.45,100.41 258.84,100.28 259.22,100.15 259.60,100.02 259.98,99.88 260.37,99.75 260.75,99.62 261.13,99.49 261.51,99.36 261.90,99.23 262.28,99.10 262.66,98.97 263.04,98.84 263.43,98.71 263.81,98.58 264.19,98.45 264.57,98.32 264.96,98.19 265.34,98.07 265.72,97.94 266.10,97.81 266.49,97.68 266.87,97.56 267.25,97.43 267.63,97.31 268.02,97.18 268.40,97.06 268.78,96.93 269.16,96.81 269.55,96.68 269.93,96.56 270.31,96.43 270.69,96.31 271.08,96.19 271.46,96.07" fill="none" stroke="#000000" stroke-width="1.5"/>
<polygon points="118.46,260.54 117.15,255.71 121.01,256.23" fill="#000000" stroke="none" stroke-width="0"/>
<polygon points="271.46,96.07 267.67,99.33 266.48,95.62" fill="#000000" stroke="none" stroke-width="0"/>
<line x1="112.08" y1="137.50" x2="147.50" y2="172.92" stroke="#000000" stroke-width="0.8" stroke-dasharray="1.5,2"/>
<circle cx="112.08" cy="137.50" r="2.4" fill="#000000" stroke="none"/>
<circle cx="147.50" cy="172.92" r="2.4" fill="#000000" stroke="none"/>
<line x1="147.50" y1="102.08" x2="182.92" y2="137.50" stroke="#000000" stroke-width="0.8" stroke-dasharray="1.5,2"/>
<circle cx="147.50" cy="102.08" r="2.4" fill="#000000" stroke="none"/>
<circle cx="182.92" cy="137.50" r="2.4" fill="#000000" stroke="none"/>
<text x="76.08" y="133.50" font-family="Cambria Math" font-size="12pt">(0,1)</text>
<text x="147.50" y="188.92" font-family="Cambria Math" font-size="12pt">(1,0)</text>
<text x="109.50" y="100.08" font-family="Cambria Math" font-size="12pt">(1,2)</text>
<text x="188.92" y="151.50" font-family="Cambria Math" font-size="12pt">(2,1)</text>
<text x="192.46" y="24.62" font-family="Cambria Math" font-size="12pt">y=2ˣ</text>
<text x="209.92" y="90.54" font-family="Cambria Math" font-size="12pt">y=log₂x</text>
<text x="247.13" y="60.04" font-family="Cambria Math" font-size="12pt">y=x</text>
</svg>
