<svg xmlns="http://www.w3.org/2000/svg" width="452.0pt" height="284.0pt" viewBox="0 0 452.0 284.0">
<rect x="32.00" y="120.00" width="76.00" height="44.00" rx="22.00" fill="#CFE3F3" stroke="none"/>
<rect x="124.00" y="114.00" width="76.00" height="56.00" rx="28.00" fill="#F3D9B5" stroke="none"/>
<path d="M 24.00 142.00 Q 70.00 118.00 116.00 142.00" fill="none" stroke="#000000" stroke-width="1.3"/>
<path d="M 24.00 142.00 Q 70.00 166.00 116.00 142.00" fill="none" stroke="#000000" stroke-width="1.3"/>
<path d="M 116.00 142.00 Q 162.00 106.00 208.00 142.00" fill="none" stroke="#000000" stroke-width="1.3"/>
<path d="M 116.00 142.00 Q 162.00 142.00 208.00 142.00" fill="none" stroke="#000000" stroke-width="1.3"/>
<path d="M 116.00 142.00 Q 162.00 178.00 208.00 142.00" fill="none" stroke="#000000" stroke-width="1.3"/>
<circle cx="116.00" cy="142.00" r="2.6" fill="#000000" stroke="none"/>
<text x="32.76" y="110.00" font-family="TH Sarabun New" font-size="13pt">ขั้นที่ 1 เสื้อ 2 แบบ</text>
<text x="116.37" y="190.00" font-family="TH Sarabun New" font-size="13pt">ขั้นที่ 2 กางเกง 3 แบบ</text>
<text x="86.76" y="20.00" font-family="TH Sarabun New" font-size="17pt">หลักการคูณ</text>
<text x="51.72" y="42.00" font-family="TH Sarabun New" font-size="13pt">หนึ่งชุดต้องมีทั้งเสื้อและกางเกง</text>
<text x="69.10" y="240.00" font-family="TH Sarabun New" font-size="14pt">ต้องผ่านทุกขั้น ทีละขั้น</text>
<text x="81.38" y="266.00" font-family="Cambria Math" font-size="14pt">2×3=6</text>
<text x="138.58" y="266.00" font-family="TH Sarabun New" font-size="14pt">ชุด</text>
<line x1="228.00" y1="12.00" x2="228.00" y2="274.00" stroke="#7F7F7F" stroke-width="0.6" stroke-dasharray="3,3"/>
<rect x="300.00" y="80.00" width="80.00" height="40.00" rx="20.00" fill="#CFE3F3" stroke="none"/>
<rect x="300.00" y="158.00" width="80.00" height="52.00" rx="26.00" fill="#F3D9B5" stroke="none"/>
<line x1="248.00" y1="142.00" x2="294.00" y2="100.00" stroke="#000000" stroke-width="1.3"/>
<line x1="248.00" y1="142.00" x2="294.00" y2="184.00" stroke="#000000" stroke-width="1.3"/>
<line x1="386.00" y1="100.00" x2="432.00" y2="142.00" stroke="#000000" stroke-width="1.3"/>
<line x1="386.00" y1="184.00" x2="432.00" y2="142.00" stroke="#000000" stroke-width="1.3"/>
<path d="M 294.00 100.00 Q 340.00 80.00 386.00 100.00" fill="none" stroke="#000000" stroke-width="1.3"/>
<path d="M 294.00 100.00 Q 340.00 120.00 386.00 100.00" fill="none" stroke="#000000" stroke-width="1.3"/>
<path d="M 294.00 184.00 Q 340.00 152.00 386.00 184.00" fill="none" stroke="#000000" stroke-width="1.3"/>
<path d="M 294.00 184.00 Q 340.00 184.00 386.00 184.00" fill="none" stroke="#000000" stroke-width="1.3"/>
<path d="M 294.00 184.00 Q 340.00 216.00 386.00 184.00" fill="none" stroke="#000000" stroke-width="1.3"/>
<circle cx="294.00" cy="100.00" r="2.2" fill="#000000" stroke="none"/>
<circle cx="386.00" cy="100.00" r="2.2" fill="#000000" stroke="none"/>
<circle cx="294.00" cy="184.00" r="2.2" fill="#000000" stroke="none"/>
<circle cx="386.00" cy="184.00" r="2.2" fill="#000000" stroke="none"/>
<text x="308.80" y="72.00" font-family="TH Sarabun New" font-size="13pt">กรณีเสื้อ 2 แบบ</text>
<text x="300.42" y="226.00" font-family="TH Sarabun New" font-size="13pt">กรณีกางเกง 3 แบบ</text>
<text x="307.11" y="20.00" font-family="TH Sarabun New" font-size="17pt">หลักการบวก</text>
<text x="259.66" y="42.00" font-family="TH Sarabun New" font-size="13pt">ของขวัญ 1 ชิ้น เป็นเสื้อหรือกางเกงก็ได้</text>
<text x="275.04" y="246.00" font-family="TH Sarabun New" font-size="14pt">ใช้กรณีเดียว และกรณีไม่ซ้ำกัน</text>
<text x="302.37" y="270.00" font-family="Cambria Math" font-size="14pt">2+3=5</text>
<text x="359.57" y="270.00" font-family="TH Sarabun New" font-size="14pt">แบบ</text>
<circle cx="24.00" cy="142.00" r="3.2" fill="#000000" stroke="none"/>
<text x="15.62" y="164.00" font-family="TH Sarabun New" font-size="13pt">เริ่ม</text>
<circle cx="208.00" cy="142.00" r="3.2" fill="#000000" stroke="none"/>
<text x="196.82" y="164.00" font-family="TH Sarabun New" font-size="13pt">เสร็จ</text>
<circle cx="248.00" cy="142.00" r="3.2" fill="#000000" stroke="none"/>
<text x="239.62" y="164.00" font-family="TH Sarabun New" font-size="13pt">เริ่ม</text>
<circle cx="432.00" cy="142.00" r="3.2" fill="#000000" stroke="none"/>
<text x="420.82" y="164.00" font-family="TH Sarabun New" font-size="13pt">เสร็จ</text>
</svg>
