<svg xmlns="http://www.w3.org/2000/svg" width="290.0pt" height="250.0pt" viewBox="0 0 290.0 250.0">
<line x1="20.00" y1="128.00" x2="261.00" y2="128.00" stroke="#000000" stroke-width="0.9"/>
<polygon points="266.00,128.00 260.47,130.34 260.47,125.66" fill="#000000" stroke="none" stroke-width="0"/>
<line x1="130.00" y1="236.00" x2="130.00" y2="11.00" stroke="#000000" stroke-width="0.9"/>
<polygon points="130.00,6.00 132.34,11.53 127.66,11.53" fill="#000000" stroke="none" stroke-width="0"/>
<text x="260.00" y="143.00" font-family="Cambria Math" font-size="12pt" font-style="italic">x</text>
<text x="136.00" y="15.00" font-family="Cambria Math" font-size="12pt" font-style="italic">y</text>
<circle cx="130.00" cy="128.00" r="88.00" fill="none" stroke="#000000" stroke-width="1.2"/>
<polygon points="130.00,128.00 184.18,128.00 184.18,58.66" fill="#CFE3F3" stroke="none" stroke-width="0"/>
<line x1="130.00" y1="128.00" x2="184.18" y2="128.00" stroke="#000000" stroke-width="2.6"/>
<line x1="184.18" y1="128.00" x2="184.18" y2="58.66" stroke="#000000" stroke-width="2.6"/>
<line x1="130.00" y1="128.00" x2="184.18" y2="58.66" stroke="#000000" stroke-width="1.2"/>
<polyline points="177.18,128.00 177.18,121.00 184.18,121.00" fill="none" stroke="#000000" stroke-width="0.8"/>
<path d="M 150.00 128.00 A 20 20 0 0 0 142.31 112.24" fill="none" stroke="#000000" stroke-width="0.9"/>
<text x="154.00" y="121.00" font-family="Cambria Math" font-size="12pt" font-style="italic">θ</text>
<circle cx="184.18" cy="58.66" r="2.6" fill="#000000" stroke="none"/>
<circle cx="130.00" cy="128.00" r="1.8" fill="#000000" stroke="none"/>
<text x="116.00" y="143.00" font-family="Cambria Math" font-size="12pt" font-style="italic">O</text>
<text x="190.18" y="52.66" font-family="Cambria Math" font-size="12pt">P(cos θ, sin θ)</text>
<text x="140.29" y="145.00" font-family="Cambria Math" font-size="12pt">cos θ</text>
<text x="189.18" y="97.33" font-family="Cambria Math" font-size="12pt">sin θ</text>
<text x="143.09" y="91.33" font-family="Cambria Math" font-size="12pt">1</text>
<circle cx="218.00" cy="128.00" r="1.8" fill="#000000" stroke="none"/>
<text x="222.00" y="143.00" font-family="Cambria Math" font-size="11pt">(1,0)</text>
<circle cx="130.00" cy="40.00" r="1.8" fill="#000000" stroke="none"/>
<text x="92.00" y="35.00" font-family="Cambria Math" font-size="11pt">(0,1)</text>
<circle cx="42.00" cy="128.00" r="1.8" fill="#000000" stroke="none"/>
<text x="2.00" y="143.00" font-family="Cambria Math" font-size="11pt">(−1,0)</text>
<circle cx="130.00" cy="216.00" r="1.8" fill="#000000" stroke="none"/>
<text x="135.00" y="232.00" font-family="Cambria Math" font-size="11pt">(0,−1)</text>
</svg>
